<?xml version="1.0" standalone="yes"?>

<svg version="1.1" viewBox="0.0 0.0 960.0 720.0" fill="none" stroke="none" stroke-linecap="square" stroke-miterlimit="10" xmlns="http://www.w3.org/2000/svg" xmlns:xlink="http://www.w3.org/1999/xlink"><clipPath id="p.0"><path d="m0 0l960.0 0l0 720.0l-960.0 0l0 -720.0z" clip-rule="nonzero"></path></clipPath><g clip-path="url(#p.0)"><path fill="#000000" fill-opacity="0.0" d="m0 0l960.0 0l0 720.0l-960.0 0z" fill-rule="evenodd"></path><path fill="#000000" fill-opacity="0.0" d="m71.2126 292.31497l817.5748 0l0 135.37006l-817.5748 0z" fill-rule="evenodd"></path><path fill="#ffffff" d="m122.13283 326.12875l0 28.40625l26.765625 -28.40625l18.84375 0l-26.8125 27.046875l29.390625 41.484375l-18.9375 0l-20.625 -30.796875l-8.625 8.71875l0 22.078125l-15.09375 0l0 -68.53125l15.09375 0zm115.078125 0l25.64061 68.484375l-15.656235 0l-5.15625 -15.234375l-25.640625 0l-5.390625 15.28125l-15.234375 0l26.015625 -68.53125l15.421875 0zm-7.96875 16.875l-8.90625 25.171875l17.765625 0l-8.625 -25.171875l-0.234375 0zm117.04686 -16.875l0 12.65625l-20.578125 0l0 55.875l-15.046875 0l0 -55.875l-20.53125 0l0 -12.65625l56.15625 0zm68.671875 0l25.640625 68.484375l-15.65625 0l-5.15625 -15.234375l-25.640625 0l-5.390625 15.28125l-15.234375 0l26.015625 -68.53125l15.421875 0zm-7.96875 16.875l-8.90625 25.171875l17.765625 0l-8.625 -25.171875l-0.234375 0zm99.0 -16.875q10.5 0 15.9375 4.15625q5.4375 4.140625 5.4375 12.765625q0 5.296875 -2.4375 8.765625q-2.4375 3.46875 -6.84375 5.578125q6.234375 1.875 9.390625 6.328125q3.171875 4.453125 3.171875 11.0625q0 9.46875 -6.84375 14.671875q-6.84375 5.203125 -16.921875 5.203125l-33.65625 0l0 -68.53125l32.765625 0zm-2.15625 27.75q4.03125 0 6.484375 -2.0625q2.46875 -2.0625 2.46875 -6.09375q0 -4.03125 -2.53125 -5.953125q-2.53125 -1.921875 -7.453125 -1.921875l-14.484375 0l0 16.03125l15.515625 0zm0.984375 29.0625q5.015625 0 7.875 -2.203125q2.859375 -2.203125 2.859375 -6.796875q0 -4.828125 -2.703125 -7.3125q-2.6875 -2.484375 -7.796875 -2.484375l-16.734375 0l0 18.796875l16.5 0zm96.84375 -56.8125l25.640625 68.484375l-15.65625 0l-5.15625 -15.234375l-25.640625 0l-5.390625 15.28125l-15.234375 0l26.015625 -68.53125l15.421875 0zm-7.96875 16.875l-8.90625 25.171875l17.765625 0l-8.625 -25.171875l-0.234375 0zm89.859375 -18.515625q12.421875 0 19.921875 5.765625q7.5 5.765625 7.5 16.3125l-14.578125 0q-0.328125 -5.15625 -3.515625 -7.75q-3.1875 -2.609375 -9.9375 -2.609375q-4.59375 0 -7.53125 2.015625q-2.921875 2.015625 -2.921875 5.765625q0 2.578125 1.21875 3.84375q1.21875 1.265625 4.984375 2.65625q3.78125 1.375 16.484375 4.375q8.53125 2.0625 13.3125 6.984375q4.78125 4.921875 4.78125 12.46875q0 9.9375 -7.453125 15.96875q-7.453125 6.015625 -21.0 6.015625q-12.9375 0 -21.09375 -6.375q-8.15625 -6.375 -8.15625 -17.625l0 -0.375l14.578125 0q0.09375 6.375 4.265625 9.515625q4.171875 3.140625 10.921875 3.140625q6.09375 0 9.71875 -2.21875q3.640625 -2.234375 3.640625 -6.3125q0 -3.328125 -2.796875 -5.453125q-2.78125 -2.140625 -8.921875 -3.6875q-7.875 -1.78125 -14.296875 -3.765625q-6.421875 -2.0 -10.625 -6.46875q-4.1875 -4.484375 -4.1875 -11.46875q0 -9.234375 7.375 -14.96875q7.390625 -5.75 18.3125 -5.75zm80.4375 1.640625l0 68.53125l-15.09375 0l0 -68.53125l15.09375 0zm63.515625 -1.640625q12.421875 0 19.921875 5.765625q7.5 5.765625 7.5 16.3125l-14.578125 0q-0.328125 -5.15625 -3.515625 -7.75q-3.1875 -2.609375 -9.9375 -2.609375q-4.59375 0 -7.53125 2.015625q-2.921875 2.015625 -2.921875 5.765625q0 2.578125 1.21875 3.84375q1.21875 1.265625 4.984375 2.65625q3.78125 1.375 16.484375 4.375q8.53125 2.0625 13.3125 6.984375q4.78125 4.921875 4.78125 12.46875q0 9.9375 -7.453125 15.96875q-7.453125 6.015625 -21.0 6.015625q-12.9375 0 -21.09375 -6.375q-8.15625 -6.375 -8.15625 -17.625l0 -0.375l14.578125 0q0.09375 6.375 4.265625 9.515625q4.171875 3.140625 10.921875 3.140625q6.09375 0 9.71875 -2.21875q3.640625 -2.234375 3.640625 -6.3125q0 -3.328125 -2.796875 -5.453125q-2.78125 -2.140625 -8.921875 -3.6875q-7.875 -1.78125 -14.296875 -3.765625q-6.421875 -2.0 -10.625 -6.46875q-4.1875 -4.484375 -4.1875 -11.46875q0 -9.234375 7.375 -14.96875q7.390625 -5.75 18.3125 -5.75z" fill-rule="nonzero"></path></g></svg>

